<?xml version="1.0" encoding="UTF-8" standalone="no"?>
<!DOCTYPE svg PUBLIC "-//W3C//DTD SVG 1.1//EN"
 "http://www.w3.org/Graphics/SVG/1.1/DTD/svg11.dtd">
<!-- Generated by graphviz version 2.40.1 (20161225.0304)
 -->
<!-- Title: controllers_diagram Pages: 1 -->
<svg width="772pt" height="714pt"
 viewBox="0.00 0.00 772.00 714.00" xmlns="http://www.w3.org/2000/svg" xmlns:xlink="http://www.w3.org/1999/xlink">
<g id="graph0" class="graph" transform="scale(1 1) rotate(0) translate(4 710)">
<title>controllers_diagram</title>
<polygon fill="transparent" stroke="transparent" points="-4,4 -4,-710 768,-710 768,4 -4,4"/>
<!-- _diagram_info -->
<g id="node1" class="node">
<title>_diagram_info</title>
<text text-anchor="start" x="296" y="-135.6" font-family="Times,serif" font-size="13.00" fill="#000000">Controllers diagram</text>
<text text-anchor="start" x="296" y="-121.6" font-family="Times,serif" font-size="13.00" fill="#000000">Date: Jul 10 2019 &#45; 15:11</text>
<text text-anchor="start" x="296" y="-107.6" font-family="Times,serif" font-size="13.00" fill="#000000">Migration version: 20190629032137</text>
<text text-anchor="start" x="296" y="-93.6" font-family="Times,serif" font-size="13.00" fill="#000000">Generated by RailRoady 1.5.3</text>
<text text-anchor="start" x="296" y="-79.6" font-family="Times,serif" font-size="13.00" fill="#000000">http://railroady.prestonlee.com</text>
</g>
<!-- Coordinators::InfosController -->
<g id="node2" class="node">
<title>Coordinators::InfosController</title>
<path fill="none" stroke="#000000" d="M48,-558.5C48,-558.5 202,-558.5 202,-558.5 208,-558.5 214,-564.5 214,-570.5 214,-570.5 214,-684.5 214,-684.5 214,-690.5 208,-696.5 202,-696.5 202,-696.5 48,-696.5 48,-696.5 42,-696.5 36,-690.5 36,-684.5 36,-684.5 36,-570.5 36,-570.5 36,-564.5 42,-558.5 48,-558.5"/>
<text text-anchor="middle" x="125" y="-681.3" font-family="Times,serif" font-size="14.00" fill="#000000">Coordinators::InfosController</text>
<polyline fill="none" stroke="#000000" points="36,-673.5 214,-673.5 "/>
<text text-anchor="start" x="44" y="-658.3" font-family="Times,serif" font-size="14.00" fill="#000000">index</text>
<text text-anchor="start" x="44" y="-643.3" font-family="Times,serif" font-size="14.00" fill="#000000">update</text>
<polyline fill="none" stroke="#000000" points="36,-635.5 214,-635.5 "/>
<polyline fill="none" stroke="#000000" points="36,-611.5 214,-611.5 "/>
<text text-anchor="start" x="44" y="-596.3" font-family="Times,serif" font-size="14.00" fill="#000000">_layout</text>
<text text-anchor="start" x="44" y="-581.3" font-family="Times,serif" font-size="14.00" fill="#000000">coordinator_params</text>
<text text-anchor="start" x="44" y="-566.3" font-family="Times,serif" font-size="14.00" fill="#000000">set_coordinator</text>
</g>
<!-- WelcomeController -->
<g id="node3" class="node">
<title>WelcomeController</title>
<path fill="none" stroke="#000000" d="M48,-162.5C48,-162.5 149,-162.5 149,-162.5 155,-162.5 161,-168.5 161,-174.5 161,-174.5 161,-303.5 161,-303.5 161,-309.5 155,-315.5 149,-315.5 149,-315.5 48,-315.5 48,-315.5 42,-315.5 36,-309.5 36,-303.5 36,-303.5 36,-174.5 36,-174.5 36,-168.5 42,-162.5 48,-162.5"/>
<text text-anchor="middle" x="98.5" y="-300.3" font-family="Times,serif" font-size="14.00" fill="#000000">WelcomeController</text>
<polyline fill="none" stroke="#000000" points="36,-292.5 161,-292.5 "/>
<text text-anchor="start" x="44" y="-277.3" font-family="Times,serif" font-size="14.00" fill="#000000">about</text>
<text text-anchor="start" x="44" y="-262.3" font-family="Times,serif" font-size="14.00" fill="#000000">contact</text>
<text text-anchor="start" x="44" y="-247.3" font-family="Times,serif" font-size="14.00" fill="#000000">coordinators</text>
<text text-anchor="start" x="44" y="-232.3" font-family="Times,serif" font-size="14.00" fill="#000000">index</text>
<text text-anchor="start" x="44" y="-217.3" font-family="Times,serif" font-size="14.00" fill="#000000">show</text>
<polyline fill="none" stroke="#000000" points="36,-209.5 161,-209.5 "/>
<polyline fill="none" stroke="#000000" points="36,-185.5 161,-185.5 "/>
<text text-anchor="start" x="44" y="-170.3" font-family="Times,serif" font-size="14.00" fill="#000000">_layout</text>
</g>
<!-- ApplicationController -->
<g id="node4" class="node">
<title>ApplicationController</title>
<path fill="none" stroke="#000000" d="M552,-.5C552,-.5 664,-.5 664,-.5 670,-.5 676,-6.5 676,-12.5 676,-12.5 676,-126.5 676,-126.5 676,-132.5 670,-138.5 664,-138.5 664,-138.5 552,-138.5 552,-138.5 546,-138.5 540,-132.5 540,-126.5 540,-126.5 540,-12.5 540,-12.5 540,-6.5 546,-.5 552,-.5"/>
<text text-anchor="middle" x="608" y="-123.3" font-family="Times,serif" font-size="14.00" fill="#000000">ApplicationController</text>
<polyline fill="none" stroke="#000000" points="540,-115.5 676,-115.5 "/>
<text text-anchor="start" x="548" y="-100.3" font-family="Times,serif" font-size="14.00" fill="#000000">danger</text>
<text text-anchor="start" x="548" y="-85.3" font-family="Times,serif" font-size="14.00" fill="#000000">info</text>
<text text-anchor="start" x="548" y="-70.3" font-family="Times,serif" font-size="14.00" fill="#000000">success</text>
<text text-anchor="start" x="548" y="-55.3" font-family="Times,serif" font-size="14.00" fill="#000000">warning</text>
<polyline fill="none" stroke="#000000" points="540,-47.5 676,-47.5 "/>
<polyline fill="none" stroke="#000000" points="540,-23.5 676,-23.5 "/>
<text text-anchor="start" x="548" y="-8.3" font-family="Times,serif" font-size="14.00" fill="#000000">_layout</text>
</g>
<!-- Admins::AboutsController -->
<g id="node5" class="node">
<title>Admins::AboutsController</title>
<path fill="none" stroke="#000000" d="M12,-360.5C12,-360.5 150,-360.5 150,-360.5 156,-360.5 162,-366.5 162,-372.5 162,-372.5 162,-501.5 162,-501.5 162,-507.5 156,-513.5 150,-513.5 150,-513.5 12,-513.5 12,-513.5 6,-513.5 0,-507.5 0,-501.5 0,-501.5 0,-372.5 0,-372.5 0,-366.5 6,-360.5 12,-360.5"/>
<text text-anchor="middle" x="81" y="-498.3" font-family="Times,serif" font-size="14.00" fill="#000000">Admins::AboutsController</text>
<polyline fill="none" stroke="#000000" points="0,-490.5 162,-490.5 "/>
<text text-anchor="start" x="8" y="-475.3" font-family="Times,serif" font-size="14.00" fill="#000000">edit</text>
<text text-anchor="start" x="8" y="-460.3" font-family="Times,serif" font-size="14.00" fill="#000000">index</text>
<text text-anchor="start" x="8" y="-445.3" font-family="Times,serif" font-size="14.00" fill="#000000">update</text>
<polyline fill="none" stroke="#000000" points="0,-437.5 162,-437.5 "/>
<polyline fill="none" stroke="#000000" points="0,-413.5 162,-413.5 "/>
<text text-anchor="start" x="8" y="-398.3" font-family="Times,serif" font-size="14.00" fill="#000000">_layout</text>
<text text-anchor="start" x="8" y="-383.3" font-family="Times,serif" font-size="14.00" fill="#000000">about_params</text>
<text text-anchor="start" x="8" y="-368.3" font-family="Times,serif" font-size="14.00" fill="#000000">set_about</text>
</g>
<!-- Admins::CoordinatorsController -->
<g id="node6" class="node">
<title>Admins::CoordinatorsController</title>
<path fill="none" stroke="#000000" d="M426,-180.5C426,-180.5 596,-180.5 596,-180.5 602,-180.5 608,-186.5 608,-192.5 608,-192.5 608,-381.5 608,-381.5 608,-387.5 602,-393.5 596,-393.5 596,-393.5 426,-393.5 426,-393.5 420,-393.5 414,-387.5 414,-381.5 414,-381.5 414,-192.5 414,-192.5 414,-186.5 420,-180.5 426,-180.5"/>
<text text-anchor="middle" x="511" y="-378.3" font-family="Times,serif" font-size="14.00" fill="#000000">Admins::CoordinatorsController</text>
<polyline fill="none" stroke="#000000" points="414,-370.5 608,-370.5 "/>
<text text-anchor="start" x="422" y="-355.3" font-family="Times,serif" font-size="14.00" fill="#000000">create</text>
<text text-anchor="start" x="422" y="-340.3" font-family="Times,serif" font-size="14.00" fill="#000000">destroy</text>
<text text-anchor="start" x="422" y="-325.3" font-family="Times,serif" font-size="14.00" fill="#000000">edit</text>
<text text-anchor="start" x="422" y="-310.3" font-family="Times,serif" font-size="14.00" fill="#000000">index</text>
<text text-anchor="start" x="422" y="-295.3" font-family="Times,serif" font-size="14.00" fill="#000000">new</text>
<text text-anchor="start" x="422" y="-280.3" font-family="Times,serif" font-size="14.00" fill="#000000">update</text>
<polyline fill="none" stroke="#000000" points="414,-272.5 608,-272.5 "/>
<polyline fill="none" stroke="#000000" points="414,-248.5 608,-248.5 "/>
<text text-anchor="start" x="422" y="-233.3" font-family="Times,serif" font-size="14.00" fill="#000000">_layout</text>
<text text-anchor="start" x="422" y="-218.3" font-family="Times,serif" font-size="14.00" fill="#000000">coordinator_params</text>
<text text-anchor="start" x="422" y="-203.3" font-family="Times,serif" font-size="14.00" fill="#000000">get_all_courses</text>
<text text-anchor="start" x="422" y="-188.3" font-family="Times,serif" font-size="14.00" fill="#000000">set_coordinator</text>
</g>
<!-- CreditFormsController -->
<g id="node7" class="node">
<title>CreditFormsController</title>
<path fill="none" stroke="#000000" d="M426,-432.5C426,-432.5 543,-432.5 543,-432.5 549,-432.5 555,-438.5 555,-444.5 555,-444.5 555,-633.5 555,-633.5 555,-639.5 549,-645.5 543,-645.5 543,-645.5 426,-645.5 426,-645.5 420,-645.5 414,-639.5 414,-633.5 414,-633.5 414,-444.5 414,-444.5 414,-438.5 420,-432.5 426,-432.5"/>
<text text-anchor="middle" x="484.5" y="-630.3" font-family="Times,serif" font-size="14.00" fill="#000000">CreditFormsController</text>
<polyline fill="none" stroke="#000000" points="414,-622.5 555,-622.5 "/>
<text text-anchor="start" x="422" y="-607.3" font-family="Times,serif" font-size="14.00" fill="#000000">create</text>
<text text-anchor="start" x="422" y="-592.3" font-family="Times,serif" font-size="14.00" fill="#000000">destroy</text>
<text text-anchor="start" x="422" y="-577.3" font-family="Times,serif" font-size="14.00" fill="#000000">edit</text>
<text text-anchor="start" x="422" y="-562.3" font-family="Times,serif" font-size="14.00" fill="#000000">index</text>
<text text-anchor="start" x="422" y="-547.3" font-family="Times,serif" font-size="14.00" fill="#000000">new</text>
<text text-anchor="start" x="422" y="-532.3" font-family="Times,serif" font-size="14.00" fill="#000000">show</text>
<text text-anchor="start" x="422" y="-517.3" font-family="Times,serif" font-size="14.00" fill="#000000">update</text>
<polyline fill="none" stroke="#000000" points="414,-509.5 555,-509.5 "/>
<polyline fill="none" stroke="#000000" points="414,-485.5 555,-485.5 "/>
<text text-anchor="start" x="422" y="-470.3" font-family="Times,serif" font-size="14.00" fill="#000000">_layout</text>
<text text-anchor="start" x="422" y="-455.3" font-family="Times,serif" font-size="14.00" fill="#000000">credit_form_params</text>
<text text-anchor="start" x="422" y="-440.3" font-family="Times,serif" font-size="14.00" fill="#000000">set_credit_form</text>
</g>
<!-- StudentsController -->
<g id="node8" class="node">
<title>StudentsController</title>
<path fill="none" stroke="#000000" d="M606,-432.5C606,-432.5 701,-432.5 701,-432.5 707,-432.5 713,-438.5 713,-444.5 713,-444.5 713,-558.5 713,-558.5 713,-564.5 707,-570.5 701,-570.5 701,-570.5 606,-570.5 606,-570.5 600,-570.5 594,-564.5 594,-558.5 594,-558.5 594,-444.5 594,-444.5 594,-438.5 600,-432.5 606,-432.5"/>
<text text-anchor="middle" x="653.5" y="-555.3" font-family="Times,serif" font-size="14.00" fill="#000000">StudentsController</text>
<polyline fill="none" stroke="#000000" points="594,-547.5 713,-547.5 "/>
<text text-anchor="start" x="602" y="-532.3" font-family="Times,serif" font-size="14.00" fill="#000000">index</text>
<text text-anchor="start" x="602" y="-517.3" font-family="Times,serif" font-size="14.00" fill="#000000">update</text>
<polyline fill="none" stroke="#000000" points="594,-509.5 713,-509.5 "/>
<polyline fill="none" stroke="#000000" points="594,-485.5 713,-485.5 "/>
<text text-anchor="start" x="602" y="-470.3" font-family="Times,serif" font-size="14.00" fill="#000000">_layout</text>
<text text-anchor="start" x="602" y="-455.3" font-family="Times,serif" font-size="14.00" fill="#000000">set_student</text>
<text text-anchor="start" x="602" y="-440.3" font-family="Times,serif" font-size="14.00" fill="#000000">student_params</text>
</g>
<!-- RemindersController -->
<g id="node9" class="node">
<title>RemindersController</title>
<path fill="none" stroke="#000000" d="M264,-468.5C264,-468.5 371,-468.5 371,-468.5 377,-468.5 383,-474.5 383,-480.5 383,-480.5 383,-669.5 383,-669.5 383,-675.5 377,-681.5 371,-681.5 371,-681.5 264,-681.5 264,-681.5 258,-681.5 252,-675.5 252,-669.5 252,-669.5 252,-480.5 252,-480.5 252,-474.5 258,-468.5 264,-468.5"/>
<text text-anchor="middle" x="317.5" y="-666.3" font-family="Times,serif" font-size="14.00" fill="#000000">RemindersController</text>
<polyline fill="none" stroke="#000000" points="252,-658.5 383,-658.5 "/>
<text text-anchor="start" x="260" y="-643.3" font-family="Times,serif" font-size="14.00" fill="#000000">create</text>
<text text-anchor="start" x="260" y="-628.3" font-family="Times,serif" font-size="14.00" fill="#000000">destroy</text>
<text text-anchor="start" x="260" y="-613.3" font-family="Times,serif" font-size="14.00" fill="#000000">edit</text>
<text text-anchor="start" x="260" y="-598.3" font-family="Times,serif" font-size="14.00" fill="#000000">index</text>
<text text-anchor="start" x="260" y="-583.3" font-family="Times,serif" font-size="14.00" fill="#000000">new</text>
<text text-anchor="start" x="260" y="-568.3" font-family="Times,serif" font-size="14.00" fill="#000000">show</text>
<text text-anchor="start" x="260" y="-553.3" font-family="Times,serif" font-size="14.00" fill="#000000">update</text>
<polyline fill="none" stroke="#000000" points="252,-545.5 383,-545.5 "/>
<polyline fill="none" stroke="#000000" points="252,-521.5 383,-521.5 "/>
<text text-anchor="start" x="260" y="-506.3" font-family="Times,serif" font-size="14.00" fill="#000000">_layout</text>
<text text-anchor="start" x="260" y="-491.3" font-family="Times,serif" font-size="14.00" fill="#000000">reminder_params</text>
<text text-anchor="start" x="260" y="-476.3" font-family="Times,serif" font-size="14.00" fill="#000000">set_reminder</text>
</g>
<!-- CoordinatorsController -->
<g id="node10" class="node">
<title>CoordinatorsController</title>
<path fill="none" stroke="#000000" d="M12,-18.5C12,-18.5 131,-18.5 131,-18.5 137,-18.5 143,-24.5 143,-30.5 143,-30.5 143,-115.5 143,-115.5 143,-121.5 137,-127.5 131,-127.5 131,-127.5 12,-127.5 12,-127.5 6,-127.5 0,-121.5 0,-115.5 0,-115.5 0,-30.5 0,-30.5 0,-24.5 6,-18.5 12,-18.5"/>
<text text-anchor="middle" x="71.5" y="-112.3" font-family="Times,serif" font-size="14.00" fill="#000000">CoordinatorsController</text>
<polyline fill="none" stroke="#000000" points="0,-104.5 143,-104.5 "/>
<polyline fill="none" stroke="#000000" points="0,-80.5 143,-80.5 "/>
<polyline fill="none" stroke="#000000" points="0,-56.5 143,-56.5 "/>
<text text-anchor="start" x="8" y="-41.3" font-family="Times,serif" font-size="14.00" fill="#000000">_layout</text>
<text text-anchor="start" x="8" y="-26.3" font-family="Times,serif" font-size="14.00" fill="#000000">check_coordinator</text>
</g>
<!-- AdminsController -->
<g id="node11" class="node">
<title>AdminsController</title>
<path fill="none" stroke="#000000" d="M660,-180.5C660,-180.5 752,-180.5 752,-180.5 758,-180.5 764,-186.5 764,-192.5 764,-192.5 764,-277.5 764,-277.5 764,-283.5 758,-289.5 752,-289.5 752,-289.5 660,-289.5 660,-289.5 654,-289.5 648,-283.5 648,-277.5 648,-277.5 648,-192.5 648,-192.5 648,-186.5 654,-180.5 660,-180.5"/>
<text text-anchor="middle" x="706" y="-274.3" font-family="Times,serif" font-size="14.00" fill="#000000">AdminsController</text>
<polyline fill="none" stroke="#000000" points="648,-266.5 764,-266.5 "/>
<polyline fill="none" stroke="#000000" points="648,-242.5 764,-242.5 "/>
<polyline fill="none" stroke="#000000" points="648,-218.5 764,-218.5 "/>
<text text-anchor="start" x="656" y="-203.3" font-family="Times,serif" font-size="14.00" fill="#000000">_layout</text>
<text text-anchor="start" x="656" y="-188.3" font-family="Times,serif" font-size="14.00" fill="#000000">check_admin</text>
</g>
<!-- RegistrationsController -->
<g id="node12" class="node">
<title>RegistrationsController</title>
<path fill="none" stroke="#000000" d="M606,-612.5C606,-612.5 725,-612.5 725,-612.5 731,-612.5 737,-618.5 737,-624.5 737,-624.5 737,-693.5 737,-693.5 737,-699.5 731,-705.5 725,-705.5 725,-705.5 606,-705.5 606,-705.5 600,-705.5 594,-699.5 594,-693.5 594,-693.5 594,-624.5 594,-624.5 594,-618.5 600,-612.5 606,-612.5"/>
<text text-anchor="middle" x="665.5" y="-690.3" font-family="Times,serif" font-size="14.00" fill="#000000">RegistrationsController</text>
<polyline fill="none" stroke="#000000" points="594,-682.5 737,-682.5 "/>
<text text-anchor="start" x="602" y="-667.3" font-family="Times,serif" font-size="14.00" fill="#000000">create</text>
<polyline fill="none" stroke="#000000" points="594,-659.5 737,-659.5 "/>
<polyline fill="none" stroke="#000000" points="594,-635.5 737,-635.5 "/>
<text text-anchor="start" x="602" y="-620.3" font-family="Times,serif" font-size="14.00" fill="#000000">_layout</text>
</g>
<!-- AttendanceRequestsController -->
<g id="node13" class="node">
<title>AttendanceRequestsController</title>
<path fill="none" stroke="#000000" d="M210,-180.5C210,-180.5 368,-180.5 368,-180.5 374,-180.5 380,-186.5 380,-192.5 380,-192.5 380,-411.5 380,-411.5 380,-417.5 374,-423.5 368,-423.5 368,-423.5 210,-423.5 210,-423.5 204,-423.5 198,-417.5 198,-411.5 198,-411.5 198,-192.5 198,-192.5 198,-186.5 204,-180.5 210,-180.5"/>
<text text-anchor="middle" x="289" y="-408.3" font-family="Times,serif" font-size="14.00" fill="#000000">AttendanceRequestsController</text>
<polyline fill="none" stroke="#000000" points="198,-400.5 380,-400.5 "/>
<text text-anchor="start" x="206" y="-385.3" font-family="Times,serif" font-size="14.00" fill="#000000">create</text>
<text text-anchor="start" x="206" y="-370.3" font-family="Times,serif" font-size="14.00" fill="#000000">destroy</text>
<text text-anchor="start" x="206" y="-355.3" font-family="Times,serif" font-size="14.00" fill="#000000">edit</text>
<text text-anchor="start" x="206" y="-340.3" font-family="Times,serif" font-size="14.00" fill="#000000">filter_by_priority</text>
<text text-anchor="start" x="206" y="-325.3" font-family="Times,serif" font-size="14.00" fill="#000000">index</text>
<text text-anchor="start" x="206" y="-310.3" font-family="Times,serif" font-size="14.00" fill="#000000">new</text>
<text text-anchor="start" x="206" y="-295.3" font-family="Times,serif" font-size="14.00" fill="#000000">show</text>
<text text-anchor="start" x="206" y="-280.3" font-family="Times,serif" font-size="14.00" fill="#000000">update</text>
<polyline fill="none" stroke="#000000" points="198,-272.5 380,-272.5 "/>
<polyline fill="none" stroke="#000000" points="198,-248.5 380,-248.5 "/>
<text text-anchor="start" x="206" y="-233.3" font-family="Times,serif" font-size="14.00" fill="#000000">_layout</text>
<text text-anchor="start" x="206" y="-218.3" font-family="Times,serif" font-size="14.00" fill="#000000">attendance_request_params</text>
<text text-anchor="start" x="206" y="-203.3" font-family="Times,serif" font-size="14.00" fill="#000000">filter_params</text>
<text text-anchor="start" x="206" y="-188.3" font-family="Times,serif" font-size="14.00" fill="#000000">set_attendance_request</text>
</g>
</g>
</svg>
