<?xml version="1.0" encoding="UTF-8" standalone="no"?>
<!DOCTYPE svg PUBLIC "-//W3C//DTD SVG 1.1//EN"
 "http://www.w3.org/Graphics/SVG/1.1/DTD/svg11.dtd">
<!-- Generated by graphviz version 2.40.1 (20161225.0304)
 -->
<!-- Title: models_diagram Pages: 1 -->
<svg width="817pt" height="302pt"
 viewBox="0.00 0.00 817.50 302.00" xmlns="http://www.w3.org/2000/svg" xmlns:xlink="http://www.w3.org/1999/xlink">
<g id="graph0" class="graph" transform="scale(1 1) rotate(0) translate(4 298)">
<title>models_diagram</title>
<polygon fill="transparent" stroke="transparent" points="-4,4 -4,-298 813.4971,-298 813.4971,4 -4,4"/>
<!-- _diagram_info -->
<g id="node1" class="node">
<title>_diagram_info</title>
<text text-anchor="start" x="8" y="-279.6" font-family="Times,serif" font-size="13.00" fill="#000000">Models diagram</text>
<text text-anchor="start" x="8" y="-265.6" font-family="Times,serif" font-size="13.00" fill="#000000">Date: Jul 10 2019 &#45; 15:11</text>
<text text-anchor="start" x="8" y="-251.6" font-family="Times,serif" font-size="13.00" fill="#000000">Migration version: 20190629032137</text>
<text text-anchor="start" x="8" y="-237.6" font-family="Times,serif" font-size="13.00" fill="#000000">Generated by RailRoady 1.5.3</text>
<text text-anchor="start" x="8" y="-223.6" font-family="Times,serif" font-size="13.00" fill="#000000">http://railroady.prestonlee.com</text>
</g>
<!-- Reminder -->
<g id="node2" class="node">
<title>Reminder</title>
<ellipse fill="none" stroke="#000000" cx="152" cy="-90" rx="46.2923" ry="18"/>
<text text-anchor="middle" x="152" y="-86.3" font-family="Times,serif" font-size="14.00" fill="#000000">Reminder</text>
</g>
<!-- CreditItem -->
<g id="node3" class="node">
<title>CreditItem</title>
<ellipse fill="none" stroke="#000000" cx="268" cy="-18" rx="49.2915" ry="18"/>
<text text-anchor="middle" x="268" y="-14.3" font-family="Times,serif" font-size="14.00" fill="#000000">CreditItem</text>
</g>
<!-- Course -->
<g id="node4" class="node">
<title>Course</title>
<ellipse fill="none" stroke="#000000" cx="268" cy="-255" rx="35.9954" ry="18"/>
<text text-anchor="middle" x="268" y="-251.3" font-family="Times,serif" font-size="14.00" fill="#000000">Course</text>
</g>
<!-- User -->
<g id="node6" class="node">
<title>User</title>
<ellipse fill="none" stroke="#000000" cx="268" cy="-162" rx="27.0966" ry="18"/>
<text text-anchor="middle" x="268" y="-158.3" font-family="Times,serif" font-size="14.00" fill="#000000">User</text>
</g>
<!-- Course&#45;&gt;User -->
<g id="edge1" class="edge">
<title>Course&#45;&gt;User</title>
<path fill="none" stroke="#ec1018" d="M268,-228.4432C268,-216.4479 268,-202.268 268,-190.0949"/>
<ellipse fill="none" stroke="#ec1018" cx="268" cy="-232.6262" rx="4" ry="4"/>
<polygon fill="#ec1018" stroke="#ec1018" points="268.0001,-190.0192 272.5,-180.0191 268,-185.0192 268,-180.0192 268,-180.0192 268,-180.0192 268,-185.0192 263.5,-180.0192 268.0001,-190.0192 268.0001,-190.0192"/>
</g>
<!-- Ability -->
<g id="node5" class="node">
<title>Ability</title>
<polygon fill="none" stroke="#000000" points="376.5,-273 321.5,-273 321.5,-237 376.5,-237 376.5,-273"/>
<text text-anchor="middle" x="349" y="-251.3" font-family="Times,serif" font-size="14.00" fill="#000000">Ability</text>
</g>
<!-- User&#45;&gt;Reminder -->
<g id="edge4" class="edge">
<title>User&#45;&gt;Reminder</title>
<path fill="none" stroke="#87d7a1" d="M241.2466,-145.3944C224.7487,-135.1544 203.4424,-121.9298 185.7855,-110.9703"/>
<ellipse fill="none" stroke="#87d7a1" cx="244.6603" cy="-147.5133" rx="4" ry="4"/>
<polygon fill="#87d7a1" stroke="#87d7a1" points="185.4258,-110.7471 179.3026,-101.6501 181.1776,-108.1103 176.9294,-105.4734 176.9294,-105.4734 176.9294,-105.4734 181.1776,-108.1103 174.5563,-109.2968 185.4258,-110.7471 185.4258,-110.7471"/>
</g>
<!-- CreditForm -->
<g id="node9" class="node">
<title>CreditForm</title>
<ellipse fill="none" stroke="#000000" cx="268" cy="-90" rx="51.9908" ry="18"/>
<text text-anchor="middle" x="268" y="-86.3" font-family="Times,serif" font-size="14.00" fill="#000000">CreditForm</text>
</g>
<!-- User&#45;&gt;CreditForm -->
<g id="edge3" class="edge">
<title>User&#45;&gt;CreditForm</title>
<path fill="none" stroke="#ee98e7" d="M268,-135.8144C268,-130.2775 268,-124.4053 268,-118.7785"/>
<ellipse fill="none" stroke="#ee98e7" cx="268" cy="-139.8314" rx="4" ry="4"/>
<polygon fill="#ee98e7" stroke="#ee98e7" points="268.0001,-118.4133 272.5,-108.4132 268,-113.4133 268,-108.4133 268,-108.4133 268,-108.4133 268,-113.4133 263.5,-108.4133 268.0001,-118.4133 268.0001,-118.4133"/>
</g>
<!-- Role -->
<g id="node11" class="node">
<title>Role</title>
<ellipse fill="none" stroke="#000000" cx="365" cy="-90" rx="27.0966" ry="18"/>
<text text-anchor="middle" x="365" y="-86.3" font-family="Times,serif" font-size="14.00" fill="#000000">Role</text>
</g>
<!-- User&#45;&gt;Role -->
<g id="edge2" class="edge">
<title>User&#45;&gt;Role</title>
<path fill="none" stroke="#4eecda" d="M294.4793,-142.3453C308.2404,-132.1308 325.0042,-119.6876 338.7341,-109.4964"/>
<polygon fill="#4eecda" stroke="#4eecda" points="294.2747,-142.4971 283.5629,-144.844 290.2598,-145.4772 286.245,-148.4574 286.245,-148.4574 286.245,-148.4574 290.2598,-145.4772 288.9271,-152.0707 294.2747,-142.4971 294.2747,-142.4971"/>
<polygon fill="#4eecda" stroke="#4eecda" points="338.8071,-109.4422 349.519,-107.0953 342.822,-106.462 346.8369,-103.4819 346.8369,-103.4819 346.8369,-103.4819 342.822,-106.462 344.1547,-99.8685 338.8071,-109.4422 338.8071,-109.4422"/>
</g>
<!-- AttendanceRequest -->
<g id="node7" class="node">
<title>AttendanceRequest</title>
<ellipse fill="none" stroke="#000000" cx="474" cy="-255" rx="79.0865" ry="18"/>
<text text-anchor="middle" x="474" y="-251.3" font-family="Times,serif" font-size="14.00" fill="#000000">AttendanceRequest</text>
</g>
<!-- ApplicationRecord -->
<g id="node8" class="node">
<title>ApplicationRecord</title>
<ellipse fill="none" stroke="#000000" cx="649" cy="-255" rx="77.1866" ry="18"/>
<text text-anchor="middle" x="649" y="-251.3" font-family="Times,serif" font-size="14.00" fill="#000000">ApplicationRecord</text>
</g>
<!-- CreditForm&#45;&gt;CreditItem -->
<g id="edge5" class="edge">
<title>CreditForm&#45;&gt;CreditItem</title>
<path fill="none" stroke="#d0cd8c" d="M268,-63.8144C268,-58.2775 268,-52.4053 268,-46.7785"/>
<ellipse fill="none" stroke="#d0cd8c" cx="268" cy="-67.8314" rx="4" ry="4"/>
<polygon fill="#d0cd8c" stroke="#d0cd8c" points="268.0001,-46.4133 272.5,-36.4132 268,-41.4133 268,-36.4133 268,-36.4133 268,-36.4133 268,-41.4133 263.5,-36.4133 268.0001,-46.4133 268.0001,-46.4133"/>
</g>
<!-- About -->
<g id="node10" class="node">
<title>About</title>
<ellipse fill="none" stroke="#000000" cx="777" cy="-255" rx="32.4942" ry="18"/>
<text text-anchor="middle" x="777" y="-251.3" font-family="Times,serif" font-size="14.00" fill="#000000">About</text>
</g>
</g>
</svg>
