<?xml version="1.0" encoding="UTF-8" standalone="no"?>
<!DOCTYPE svg PUBLIC "-//W3C//DTD SVG 1.1//EN"
 "http://www.w3.org/Graphics/SVG/1.1/DTD/svg11.dtd">
<!-- Generated by graphviz version 2.40.1 (20161225.0304)
 -->
<!-- Title: models_diagram Pages: 1 -->
<svg width="1294pt" height="784pt"
 viewBox="0.00 0.00 1293.50 784.00" xmlns="http://www.w3.org/2000/svg" xmlns:xlink="http://www.w3.org/1999/xlink">
<g id="graph0" class="graph" transform="scale(1 1) rotate(0) translate(4 780)">
<title>models_diagram</title>
<polygon fill="transparent" stroke="transparent" points="-4,4 -4,-780 1289.5,-780 1289.5,4 -4,4"/>
<!-- _diagram_info -->
<g id="node1" class="node">
<title>_diagram_info</title>
<text text-anchor="start" x="47.5" y="-724.6" font-family="Times,serif" font-size="13.00" fill="#000000">Models diagram</text>
<text text-anchor="start" x="47.5" y="-710.6" font-family="Times,serif" font-size="13.00" fill="#000000">Date: Jul 10 2019 &#45; 15:11</text>
<text text-anchor="start" x="47.5" y="-696.6" font-family="Times,serif" font-size="13.00" fill="#000000">Migration version: 20190629032137</text>
<text text-anchor="start" x="47.5" y="-682.6" font-family="Times,serif" font-size="13.00" fill="#000000">Generated by RailRoady 1.5.3</text>
<text text-anchor="start" x="47.5" y="-668.6" font-family="Times,serif" font-size="13.00" fill="#000000">http://railroady.prestonlee.com</text>
</g>
<!-- Reminder -->
<g id="node2" class="node">
<title>Reminder</title>
<path fill="none" stroke="#000000" d="M12,-188.5C12,-188.5 241,-188.5 241,-188.5 247,-188.5 253,-194.5 253,-200.5 253,-200.5 253,-327.5 253,-327.5 253,-333.5 247,-339.5 241,-339.5 241,-339.5 12,-339.5 12,-339.5 6,-339.5 0,-333.5 0,-327.5 0,-327.5 0,-200.5 0,-200.5 0,-194.5 6,-188.5 12,-188.5"/>
<text text-anchor="middle" x="126.5" y="-324.3" font-family="Times,serif" font-size="14.00" fill="#000000">Reminder</text>
<polyline fill="none" stroke="#000000" points="0,-316.5 253,-316.5 "/>
<text text-anchor="start" x="8" y="-301.3" font-family="Times,serif" font-size="14.00" fill="#000000">id :bigint</text>
<text text-anchor="start" x="8" y="-286.3" font-family="Times,serif" font-size="14.00" fill="#000000">remind :text</text>
<text text-anchor="start" x="8" y="-271.3" font-family="Times,serif" font-size="14.00" fill="#000000">remind_date :timestamp without time zone</text>
<text text-anchor="start" x="8" y="-256.3" font-family="Times,serif" font-size="14.00" fill="#000000">read :boolean</text>
<text text-anchor="start" x="8" y="-241.3" font-family="Times,serif" font-size="14.00" fill="#000000">user_id :bigint</text>
<text text-anchor="start" x="8" y="-226.3" font-family="Times,serif" font-size="14.00" fill="#000000">attendance_request_id :bigint</text>
<text text-anchor="start" x="8" y="-211.3" font-family="Times,serif" font-size="14.00" fill="#000000">created_at :timestamp without time zone</text>
<text text-anchor="start" x="8" y="-196.3" font-family="Times,serif" font-size="14.00" fill="#000000">updated_at :timestamp without time zone</text>
</g>
<!-- CreditItem -->
<g id="node3" class="node">
<title>CreditItem</title>
<path fill="none" stroke="#000000" d="M283.5,-.5C283.5,-.5 503.5,-.5 503.5,-.5 509.5,-.5 515.5,-6.5 515.5,-12.5 515.5,-12.5 515.5,-139.5 515.5,-139.5 515.5,-145.5 509.5,-151.5 503.5,-151.5 503.5,-151.5 283.5,-151.5 283.5,-151.5 277.5,-151.5 271.5,-145.5 271.5,-139.5 271.5,-139.5 271.5,-12.5 271.5,-12.5 271.5,-6.5 277.5,-.5 283.5,-.5"/>
<text text-anchor="middle" x="393.5" y="-136.3" font-family="Times,serif" font-size="14.00" fill="#000000">CreditItem</text>
<polyline fill="none" stroke="#000000" points="271.5,-128.5 515.5,-128.5 "/>
<text text-anchor="start" x="279.5" y="-113.3" font-family="Times,serif" font-size="14.00" fill="#000000">id :bigint</text>
<text text-anchor="start" x="279.5" y="-98.3" font-family="Times,serif" font-size="14.00" fill="#000000">credit_form_id :bigint</text>
<text text-anchor="start" x="279.5" y="-83.3" font-family="Times,serif" font-size="14.00" fill="#000000">description :character varying</text>
<text text-anchor="start" x="279.5" y="-68.3" font-family="Times,serif" font-size="14.00" fill="#000000">group :integer</text>
<text text-anchor="start" x="279.5" y="-53.3" font-family="Times,serif" font-size="14.00" fill="#000000">workload :integer</text>
<text text-anchor="start" x="279.5" y="-38.3" font-family="Times,serif" font-size="14.00" fill="#000000">requested_credits_amount :integer</text>
<text text-anchor="start" x="279.5" y="-23.3" font-family="Times,serif" font-size="14.00" fill="#000000">created_at :timestamp without time zone</text>
<text text-anchor="start" x="279.5" y="-8.3" font-family="Times,serif" font-size="14.00" fill="#000000">updated_at :timestamp without time zone</text>
</g>
<!-- Course -->
<g id="node4" class="node">
<title>Course</title>
<path fill="none" stroke="#000000" d="M283.5,-654.5C283.5,-654.5 503.5,-654.5 503.5,-654.5 509.5,-654.5 515.5,-660.5 515.5,-666.5 515.5,-666.5 515.5,-733.5 515.5,-733.5 515.5,-739.5 509.5,-745.5 503.5,-745.5 503.5,-745.5 283.5,-745.5 283.5,-745.5 277.5,-745.5 271.5,-739.5 271.5,-733.5 271.5,-733.5 271.5,-666.5 271.5,-666.5 271.5,-660.5 277.5,-654.5 283.5,-654.5"/>
<text text-anchor="middle" x="393.5" y="-730.3" font-family="Times,serif" font-size="14.00" fill="#000000">Course</text>
<polyline fill="none" stroke="#000000" points="271.5,-722.5 515.5,-722.5 "/>
<text text-anchor="start" x="279.5" y="-707.3" font-family="Times,serif" font-size="14.00" fill="#000000">id :bigint</text>
<text text-anchor="start" x="279.5" y="-692.3" font-family="Times,serif" font-size="14.00" fill="#000000">name :character varying</text>
<text text-anchor="start" x="279.5" y="-677.3" font-family="Times,serif" font-size="14.00" fill="#000000">created_at :timestamp without time zone</text>
<text text-anchor="start" x="279.5" y="-662.3" font-family="Times,serif" font-size="14.00" fill="#000000">updated_at :timestamp without time zone</text>
</g>
<!-- User -->
<g id="node6" class="node">
<title>User</title>
<path fill="none" stroke="#000000" d="M249,-376.5C249,-376.5 538,-376.5 538,-376.5 544,-376.5 550,-382.5 550,-388.5 550,-388.5 550,-575.5 550,-575.5 550,-581.5 544,-587.5 538,-587.5 538,-587.5 249,-587.5 249,-587.5 243,-587.5 237,-581.5 237,-575.5 237,-575.5 237,-388.5 237,-388.5 237,-382.5 243,-376.5 249,-376.5"/>
<text text-anchor="middle" x="393.5" y="-572.3" font-family="Times,serif" font-size="14.00" fill="#000000">User</text>
<polyline fill="none" stroke="#000000" points="237,-564.5 550,-564.5 "/>
<text text-anchor="start" x="245" y="-549.3" font-family="Times,serif" font-size="14.00" fill="#000000">id :bigint</text>
<text text-anchor="start" x="245" y="-534.3" font-family="Times,serif" font-size="14.00" fill="#000000">email :character varying</text>
<text text-anchor="start" x="245" y="-519.3" font-family="Times,serif" font-size="14.00" fill="#000000">encrypted_password :character varying</text>
<text text-anchor="start" x="245" y="-504.3" font-family="Times,serif" font-size="14.00" fill="#000000">reset_password_token :character varying</text>
<text text-anchor="start" x="245" y="-489.3" font-family="Times,serif" font-size="14.00" fill="#000000">reset_password_sent_at :timestamp without time zone</text>
<text text-anchor="start" x="245" y="-474.3" font-family="Times,serif" font-size="14.00" fill="#000000">remember_created_at :timestamp without time zone</text>
<text text-anchor="start" x="245" y="-459.3" font-family="Times,serif" font-size="14.00" fill="#000000">created_at :timestamp without time zone</text>
<text text-anchor="start" x="245" y="-444.3" font-family="Times,serif" font-size="14.00" fill="#000000">updated_at :timestamp without time zone</text>
<text text-anchor="start" x="245" y="-429.3" font-family="Times,serif" font-size="14.00" fill="#000000">name :character varying</text>
<text text-anchor="start" x="245" y="-414.3" font-family="Times,serif" font-size="14.00" fill="#000000">notices :text</text>
<text text-anchor="start" x="245" y="-399.3" font-family="Times,serif" font-size="14.00" fill="#000000">office_hours :character varying</text>
<text text-anchor="start" x="245" y="-384.3" font-family="Times,serif" font-size="14.00" fill="#000000">course_id :bigint</text>
</g>
<!-- Course&#45;&gt;User -->
<g id="edge1" class="edge">
<title>Course&#45;&gt;User</title>
<path fill="none" stroke="#f8e711" d="M393.5,-645.8504C393.5,-631.2241 393.5,-614.8156 393.5,-598.1831"/>
<ellipse fill="none" stroke="#f8e711" cx="393.5" cy="-650.3001" rx="4" ry="4"/>
<polygon fill="#f8e711" stroke="#f8e711" points="393.5001,-597.812 398,-587.812 393.5,-592.812 393.5,-587.812 393.5,-587.812 393.5,-587.812 393.5,-592.812 389,-587.8121 393.5001,-597.812 393.5001,-597.812"/>
</g>
<!-- Ability -->
<g id="node5" class="node">
<title>Ability</title>
<polygon fill="none" stroke="#000000" points="534,-677 534,-723 589,-723 589,-677 534,-677"/>
<text text-anchor="middle" x="561.5" y="-707.8" font-family="Times,serif" font-size="14.00" fill="#000000">Ability</text>
<polyline fill="none" stroke="#000000" points="534,-700 589,-700 "/>
<text text-anchor="middle" x="561.5" y="-684.8" font-family="Times,serif" font-size="14.00" fill="#000000"> </text>
</g>
<!-- User&#45;&gt;Reminder -->
<g id="edge4" class="edge">
<title>User&#45;&gt;Reminder</title>
<path fill="none" stroke="#9cc415" d="M257.5188,-370.9741C247.2454,-362.5861 236.9916,-354.2141 227.0008,-346.0569"/>
<ellipse fill="none" stroke="#9cc415" cx="260.8122" cy="-373.6631" rx="4" ry="4"/>
<polygon fill="#9cc415" stroke="#9cc415" points="226.7956,-345.8893 221.8955,-336.079 222.9225,-342.727 219.0495,-339.5648 219.0495,-339.5648 219.0495,-339.5648 222.9225,-342.727 216.2035,-343.0505 226.7956,-345.8893 226.7956,-345.8893"/>
</g>
<!-- CreditForm -->
<g id="node9" class="node">
<title>CreditForm</title>
<path fill="none" stroke="#000000" d="M283.5,-196C283.5,-196 503.5,-196 503.5,-196 509.5,-196 515.5,-202 515.5,-208 515.5,-208 515.5,-320 515.5,-320 515.5,-326 509.5,-332 503.5,-332 503.5,-332 283.5,-332 283.5,-332 277.5,-332 271.5,-326 271.5,-320 271.5,-320 271.5,-208 271.5,-208 271.5,-202 277.5,-196 283.5,-196"/>
<text text-anchor="middle" x="393.5" y="-316.8" font-family="Times,serif" font-size="14.00" fill="#000000">CreditForm</text>
<polyline fill="none" stroke="#000000" points="271.5,-309 515.5,-309 "/>
<text text-anchor="start" x="279.5" y="-293.8" font-family="Times,serif" font-size="14.00" fill="#000000">id :bigint</text>
<text text-anchor="start" x="279.5" y="-278.8" font-family="Times,serif" font-size="14.00" fill="#000000">user_id :bigint</text>
<text text-anchor="start" x="279.5" y="-263.8" font-family="Times,serif" font-size="14.00" fill="#000000">requisition_number :integer</text>
<text text-anchor="start" x="279.5" y="-248.8" font-family="Times,serif" font-size="14.00" fill="#000000">sei :character varying</text>
<text text-anchor="start" x="279.5" y="-233.8" font-family="Times,serif" font-size="14.00" fill="#000000">received_at :date</text>
<text text-anchor="start" x="279.5" y="-218.8" font-family="Times,serif" font-size="14.00" fill="#000000">created_at :timestamp without time zone</text>
<text text-anchor="start" x="279.5" y="-203.8" font-family="Times,serif" font-size="14.00" fill="#000000">updated_at :timestamp without time zone</text>
</g>
<!-- User&#45;&gt;CreditForm -->
<g id="edge3" class="edge">
<title>User&#45;&gt;CreditForm</title>
<path fill="none" stroke="#e8c534" d="M393.5,-368.1216C393.5,-359.3953 393.5,-350.7108 393.5,-342.2924"/>
<ellipse fill="none" stroke="#e8c534" cx="393.5" cy="-372.193" rx="4" ry="4"/>
<polygon fill="#e8c534" stroke="#e8c534" points="393.5001,-342.1708 398,-332.1707 393.5,-337.1708 393.5,-332.1708 393.5,-332.1708 393.5,-332.1708 393.5,-337.1708 389,-332.1708 393.5001,-342.1708 393.5001,-342.1708"/>
</g>
<!-- Role -->
<g id="node11" class="node">
<title>Role</title>
<path fill="none" stroke="#000000" d="M545.5,-203.5C545.5,-203.5 765.5,-203.5 765.5,-203.5 771.5,-203.5 777.5,-209.5 777.5,-215.5 777.5,-215.5 777.5,-312.5 777.5,-312.5 777.5,-318.5 771.5,-324.5 765.5,-324.5 765.5,-324.5 545.5,-324.5 545.5,-324.5 539.5,-324.5 533.5,-318.5 533.5,-312.5 533.5,-312.5 533.5,-215.5 533.5,-215.5 533.5,-209.5 539.5,-203.5 545.5,-203.5"/>
<text text-anchor="middle" x="655.5" y="-309.3" font-family="Times,serif" font-size="14.00" fill="#000000">Role</text>
<polyline fill="none" stroke="#000000" points="533.5,-301.5 777.5,-301.5 "/>
<text text-anchor="start" x="541.5" y="-286.3" font-family="Times,serif" font-size="14.00" fill="#000000">id :bigint</text>
<text text-anchor="start" x="541.5" y="-271.3" font-family="Times,serif" font-size="14.00" fill="#000000">name :character varying</text>
<text text-anchor="start" x="541.5" y="-256.3" font-family="Times,serif" font-size="14.00" fill="#000000">resource_type :character varying</text>
<text text-anchor="start" x="541.5" y="-241.3" font-family="Times,serif" font-size="14.00" fill="#000000">resource_id :bigint</text>
<text text-anchor="start" x="541.5" y="-226.3" font-family="Times,serif" font-size="14.00" fill="#000000">created_at :timestamp without time zone</text>
<text text-anchor="start" x="541.5" y="-211.3" font-family="Times,serif" font-size="14.00" fill="#000000">updated_at :timestamp without time zone</text>
</g>
<!-- User&#45;&gt;Role -->
<g id="edge2" class="edge">
<title>User&#45;&gt;Role</title>
<path fill="none" stroke="#532b20" d="M528.6339,-369.5603C544.3227,-356.5063 559.9323,-343.5181 574.5616,-331.3457"/>
<polygon fill="#532b20" stroke="#532b20" points="528.3496,-369.7968 517.7844,-372.7338 524.5061,-372.9949 520.6626,-376.193 520.6626,-376.193 520.6626,-376.193 524.5061,-372.9949 523.5408,-379.6521 528.3496,-369.7968 528.3496,-369.7968"/>
<polygon fill="#532b20" stroke="#532b20" points="574.8953,-331.0681 585.4606,-328.1311 578.7388,-327.87 582.5823,-324.672 582.5823,-324.672 582.5823,-324.672 578.7388,-327.87 579.7041,-321.2128 574.8953,-331.0681 574.8953,-331.0681"/>
</g>
<!-- AttendanceRequest -->
<g id="node7" class="node">
<title>AttendanceRequest</title>
<path fill="none" stroke="#000000" d="M619.5,-624.5C619.5,-624.5 839.5,-624.5 839.5,-624.5 845.5,-624.5 851.5,-630.5 851.5,-636.5 851.5,-636.5 851.5,-763.5 851.5,-763.5 851.5,-769.5 845.5,-775.5 839.5,-775.5 839.5,-775.5 619.5,-775.5 619.5,-775.5 613.5,-775.5 607.5,-769.5 607.5,-763.5 607.5,-763.5 607.5,-636.5 607.5,-636.5 607.5,-630.5 613.5,-624.5 619.5,-624.5"/>
<text text-anchor="middle" x="729.5" y="-760.3" font-family="Times,serif" font-size="14.00" fill="#000000">AttendanceRequest</text>
<polyline fill="none" stroke="#000000" points="607.5,-752.5 851.5,-752.5 "/>
<text text-anchor="start" x="615.5" y="-737.3" font-family="Times,serif" font-size="14.00" fill="#000000">id :bigint</text>
<text text-anchor="start" x="615.5" y="-722.3" font-family="Times,serif" font-size="14.00" fill="#000000">user_id :bigint</text>
<text text-anchor="start" x="615.5" y="-707.3" font-family="Times,serif" font-size="14.00" fill="#000000">status :character varying</text>
<text text-anchor="start" x="615.5" y="-692.3" font-family="Times,serif" font-size="14.00" fill="#000000">description :character varying</text>
<text text-anchor="start" x="615.5" y="-677.3" font-family="Times,serif" font-size="14.00" fill="#000000">created_at :timestamp without time zone</text>
<text text-anchor="start" x="615.5" y="-662.3" font-family="Times,serif" font-size="14.00" fill="#000000">updated_at :timestamp without time zone</text>
<text text-anchor="start" x="615.5" y="-647.3" font-family="Times,serif" font-size="14.00" fill="#000000">details :character varying</text>
<text text-anchor="start" x="615.5" y="-632.3" font-family="Times,serif" font-size="14.00" fill="#000000">priority_student :character varying</text>
</g>
<!-- ApplicationRecord -->
<g id="node8" class="node">
<title>ApplicationRecord</title>
<ellipse fill="none" stroke="#000000" cx="946.5" cy="-700" rx="77.1866" ry="18"/>
<text text-anchor="middle" x="946.5" y="-696.3" font-family="Times,serif" font-size="14.00" fill="#000000">ApplicationRecord</text>
</g>
<!-- CreditForm&#45;&gt;CreditItem -->
<g id="edge5" class="edge">
<title>CreditForm&#45;&gt;CreditItem</title>
<path fill="none" stroke="#02e666" d="M393.5,-187.6813C393.5,-179.1127 393.5,-170.3407 393.5,-161.6642"/>
<ellipse fill="none" stroke="#02e666" cx="393.5" cy="-191.8619" rx="4" ry="4"/>
<polygon fill="#02e666" stroke="#02e666" points="393.5001,-161.5405 398,-151.5405 393.5,-156.5405 393.5,-151.5405 393.5,-151.5405 393.5,-151.5405 393.5,-156.5405 389,-151.5405 393.5001,-161.5405 393.5001,-161.5405"/>
</g>
<!-- About -->
<g id="node10" class="node">
<title>About</title>
<path fill="none" stroke="#000000" d="M1053.5,-654.5C1053.5,-654.5 1273.5,-654.5 1273.5,-654.5 1279.5,-654.5 1285.5,-660.5 1285.5,-666.5 1285.5,-666.5 1285.5,-733.5 1285.5,-733.5 1285.5,-739.5 1279.5,-745.5 1273.5,-745.5 1273.5,-745.5 1053.5,-745.5 1053.5,-745.5 1047.5,-745.5 1041.5,-739.5 1041.5,-733.5 1041.5,-733.5 1041.5,-666.5 1041.5,-666.5 1041.5,-660.5 1047.5,-654.5 1053.5,-654.5"/>
<text text-anchor="middle" x="1163.5" y="-730.3" font-family="Times,serif" font-size="14.00" fill="#000000">About</text>
<polyline fill="none" stroke="#000000" points="1041.5,-722.5 1285.5,-722.5 "/>
<text text-anchor="start" x="1049.5" y="-707.3" font-family="Times,serif" font-size="14.00" fill="#000000">id :bigint</text>
<text text-anchor="start" x="1049.5" y="-692.3" font-family="Times,serif" font-size="14.00" fill="#000000">description :text</text>
<text text-anchor="start" x="1049.5" y="-677.3" font-family="Times,serif" font-size="14.00" fill="#000000">created_at :timestamp without time zone</text>
<text text-anchor="start" x="1049.5" y="-662.3" font-family="Times,serif" font-size="14.00" fill="#000000">updated_at :timestamp without time zone</text>
</g>
</g>
</svg>
